<?xml version="1.0" standalone="no"?>
<!DOCTYPE svg PUBLIC "-//W3C//DTD SVG 20010904//EN"
 "http://www.w3.org/TR/2001/REC-SVG-20010904/DTD/svg10.dtd">
<svg version="1.0" xmlns="http://www.w3.org/2000/svg"
 width="128.000000pt" height="128.000000pt" viewBox="0 0 128.000000 128.000000"
 preserveAspectRatio="xMidYMid meet">
<metadata>
Created by potrace 1.11, written by Peter Selinger 2001-2013
</metadata>
<g transform="translate(0.000000,128.000000) scale(0.100000,-0.100000)"
fill="#000000" stroke="none">
<path d="M408 1179 c-19 -10 -40 -25 -47 -33 -8 -9 -31 -21 -52 -26 -50 -14
-95 -52 -108 -93 -6 -19 -24 -41 -41 -51 -45 -26 -74 -89 -67 -147 4 -34 2
-51 -8 -59 -43 -36 -64 -132 -44 -200 7 -25 13 -73 14 -106 0 -45 5 -67 18
-81 10 -11 17 -35 17 -57 0 -69 46 -130 108 -142 18 -3 54 -24 80 -45 25 -22
56 -40 67 -40 23 -2 47 -4 126 -14 42 -6 63 -4 87 9 63 32 62 27 62 547 0 455
-1 473 -20 504 -11 18 -33 38 -48 44 -38 16 -103 11 -144 -10z"/>
<path d="M723 1184 c-64 -32 -64 -31 -61 -558 l3 -476 33 -32 c30 -30 38 -33
95 -33 78 0 162 12 189 26 11 6 34 24 49 40 16 16 37 29 48 29 58 0 121 76
121 146 0 22 7 46 18 57 12 14 17 36 17 81 1 33 7 81 14 106 17 59 8 124 -26
174 -20 30 -27 54 -28 96 -1 62 -23 106 -64 134 -15 10 -36 37 -47 60 -22 44
-74 86 -109 86 -12 0 -30 9 -41 21 -47 53 -150 74 -211 43z"/>
</g>
</svg>
